<?xml version="1.0" encoding="utf-8"?>
<!-- Generator: Adobe Illustrator 21.0.2, SVG Export Plug-In . SVG Version: 6.00 Build 0)  -->
<svg version="1.1" xmlns="http://www.w3.org/2000/svg" xmlns:xlink="http://www.w3.org/1999/xlink" x="0px" y="0px"
	 viewBox="0 0 2560 1600" style="enable-background:new 0 0 2560 1600;" xml:space="preserve">
<style type="text/css">
	.st0{fill:#AAD5F9;}
	.st1{fill:#2879AF;}
	.st2{fill:#FFFFFF;}
	.st3{fill:#FFE000;}
</style>
<g id="Layer_1">
	<g>
		<rect class="st0" width="2560" height="1600"/>
	</g>
	<g>
		<polygon class="st0" points="1237.6,809.5 1280,736 1322.4,809.5 		"/>
		<path d="M1280,737l41.6,72h-83.1L1280,737 M1280,735l-43.3,75h86.6L1280,735L1280,735z"/>
	</g>
	<g>
		<polygon class="st1" points="1280,197 470,1600 2090,1600 		"/>
	</g>
	<polygon class="st2" points="960.5,751.5 1280.5,196.5 1601.5,754.5 1386.5,589.5 1299.5,740.5 1198.5,577.5 1134.8,724.6 
		1085.5,634.5 	"/>
	<path class="st3" d="M267,103.5C267,209.3,181.3,295,75.5,295C24,295,1,280,1,280L0,0h236C256.6,30.6,267,63.8,267,103.5z"/>
</g>
<g id="Layer_3">
	<ellipse class="st2" cx="625.5" cy="485" rx="114.5" ry="86"/>
	<circle class="st2" cx="531.5" cy="409.5" r="94.5"/>
	<ellipse class="st2" cx="409" cy="485" rx="198" ry="91"/>
</g>
<g id="nuage1">
	<ellipse class="st2" cx="2003" cy="290.5" rx="130" ry="120.5"/>
	<ellipse class="st2" cx="2159.5" cy="238" rx="144.5" ry="135"/>
	<ellipse class="st2" cx="2236" cy="342" rx="186" ry="104"/>
</g>
</svg>
