<?xml version="1.0" encoding="utf-8"?>
<!-- Generator: Adobe Illustrator 21.0.2, SVG Export Plug-In . SVG Version: 6.00 Build 0)  -->
<svg version="1.1" xmlns="http://www.w3.org/2000/svg" xmlns:xlink="http://www.w3.org/1999/xlink" x="0px" y="0px"
	 viewBox="0 0 640 480" style="enable-background:new 0 0 640 480;" xml:space="preserve">
<style type="text/css">
	.st0{display:none;}
	.st1{display:inline;stroke:#000000;stroke-miterlimit:10;}
	.st2{fill:#E6E6E6;}
	.st3{display:none;fill:#FFFFFF;stroke:#000000;stroke-miterlimit:10;}
	.st4{display:none;fill:#B3B3B3;}
	.st5{fill:#B3B3B3;}
</style>
<g id="Layer_2" class="st0">
	<rect x="-0.5" y="-0.5" class="st1" width="640" height="480"/>
</g>
<g id="Layer_1">
	<polygon class="st2" points="264,305 89,305 324.5,14.5 324.5,465.5 289,424 290,119 159,275 235,275 	"/>
	<polygon class="st3" points="140.5,288.5 159.5,288.5 112.5,372.5 92.5,372.5 	"/>
	<polygon class="st4" points="383.5,162 527.5,162 324,465.5 324,14.5 359.5,56 358.5,358 469.5,188 411.5,189 	"/>
	<polygon class="st5" points="384.5,175 559.5,175 324,465.5 324,14.5 359.5,56 358.5,361 489.5,205 413.5,205 	"/>
</g>
</svg>
