<?xml version="1.0" encoding="UTF-8" standalone="no"?>
<!-- Created with Inkscape (http://www.inkscape.org/) -->

<svg
   xmlns:dc="http://purl.org/dc/elements/1.1/"
   xmlns:cc="http://creativecommons.org/ns#"
   xmlns:rdf="http://www.w3.org/1999/02/22-rdf-syntax-ns#"
   xmlns:svg="http://www.w3.org/2000/svg"
   xmlns="http://www.w3.org/2000/svg"
   xmlns:sodipodi="http://sodipodi.sourceforge.net/DTD/sodipodi-0.dtd"
   xmlns:inkscape="http://www.inkscape.org/namespaces/inkscape"
   version="1.0"
   width="496.74979"
   height="475.79779"
   id="svg2376"
   sodipodi:version="0.32"
   inkscape:version="0.48.1 "
   sodipodi:docname="worm_13_black_white_line_art_coloring_book_colouring.svg"
   inkscape:output_extension="org.inkscape.output.svg.inkscape">
  <metadata
     id="metadata36">
    <rdf:RDF>
      <cc:Work
         rdf:about="">
        <dc:format>image/svg+xml</dc:format>
        <dc:type
           rdf:resource="http://purl.org/dc/dcmitype/StillImage" />
        <dc:title>Apple Worm</dc:title>
        <dc:creator>
          <cc:Agent>
            <dc:title>AJ Ashton</dc:title>
          </cc:Agent>
        </dc:creator>
        <dc:subject>
          <rdf:Bag>
            <rdf:li>apple</rdf:li>
            <rdf:li>worm</rdf:li>
            <rdf:li>fruit</rdf:li>
            <rdf:li>cartoon</rdf:li>
          </rdf:Bag>
        </dc:subject>
        <cc:license
           rdf:resource="http://creativecommons.org/licenses/publicdomain/" />
      </cc:Work>
      <cc:License
         rdf:about="http://creativecommons.org/licenses/publicdomain/">
        <cc:permits
           rdf:resource="http://creativecommons.org/ns#Reproduction" />
        <cc:permits
           rdf:resource="http://creativecommons.org/ns#Distribution" />
        <cc:permits
           rdf:resource="http://creativecommons.org/ns#DerivativeWorks" />
      </cc:License>
    </rdf:RDF>
  </metadata>
  <sodipodi:namedview
     inkscape:window-height="809"
     inkscape:window-width="1387"
     inkscape:pageshadow="2"
     inkscape:pageopacity="0.0"
     guidetolerance="10.0"
     gridtolerance="10.0"
     objecttolerance="10.0"
     borderopacity="1.0"
     bordercolor="#666666"
     pagecolor="#ffffff"
     id="base"
     showgrid="false"
     inkscape:zoom="1.3633019"
     inkscape:cx="400.40354"
     inkscape:cy="244.20486"
     inkscape:window-x="540"
     inkscape:window-y="14"
     inkscape:current-layer="svg2376"
     inkscape:window-maximized="0" />
  <defs
     id="defs2378">
    <inkscape:perspective
       sodipodi:type="inkscape:persp3d"
       inkscape:vp_x="0 : 250 : 1"
       inkscape:vp_y="0 : 1000 : 0"
       inkscape:vp_z="500 : 250 : 1"
       inkscape:persp3d-origin="250 : 166.66667 : 1"
       id="perspective38" />
  </defs>
  <path
     d="m 449.03333,430.46695 c 0,21.25439 -100.51953,38.48447 -224.51666,38.48447 C 100.51954,468.95142 -3.3413286e-6,451.72134 -3.3413286e-6,430.46695 -3.3413286e-6,409.21256 100.51954,391.98248 224.51667,391.98248 c 123.99713,0 224.51666,17.23008 224.51666,38.48447 l 0,0 z"
     style="fill:#000000;fill-opacity:0.39215686;stroke:none"
     id="path3263"
     inkscape:connector-curvature="0" />
  <path
     d="M 294.85984,72.746121 C 282.2194,73.0002 267.44806,82.9075 269.66975,96.616626 c 2.44823,7.679654 11.77215,4.639304 17.69376,5.439974 7.40522,1.90847 9.58336,11.07745 6.03956,17.0631 -1.10998,6.63315 6.58087,12.45018 12.77029,9.22139 12.60992,-1.26139 28.27858,-5.44268 32.35942,-18.85282 5.35753,-15.888324 -8.93952,-31.98362 -24.55275,-34.750463 -6.19766,-1.81676 -12.67064,-2.198403 -19.12019,-1.991686 z"
     style="fill:#000000;fill-opacity:1;fill-rule:evenodd;stroke:none"
     id="path3384"
     inkscape:connector-curvature="0" />
  <path
     d="m 178.7016,119.71424 c -32.38622,0.34907 -66.93239,12.41417 -85.669029,40.17647 -23.862515,36.98802 -26.647641,84.48806 -16.034977,126.42674 7.677686,26.91648 23.413426,51.53166 25.403936,79.99315 2.69752,21.76175 4.96828,46.71366 22.06419,62.46291 18.93057,16.68243 46.62356,16.53675 69.94165,11.3802 11.8048,-1.94188 23.12342,-7.35822 35.09708,-7.68532 14.52471,0.90057 27.82559,8.32631 42.44967,9.27471 20.23915,2.81842 43.68292,2.6692 60.19648,-10.96913 18.80284,-16.1071 23.07059,-42.13036 26.37291,-65.50605 2.72134,-19.36668 7.04851,-38.61158 15.86974,-56.15476 13.3923,-32.09597 24.08151,-67.68933 16.24676,-102.61304 -5.18658,-30.20827 -20.23244,-61.46024 -48.82825,-75.54921 -27.75585,-13.94986 -59.9372,-10.20421 -89.89341,-8.29373 -20.42772,1.16192 -40.88905,-0.58656 -61.11654,-2.72817 -4.02928,-0.17344 -8.06672,-0.30816 -12.10021,-0.21477 z"
     style="fill:#000000;fill-opacity:1;fill-rule:evenodd;stroke:none"
     id="path3335"
     inkscape:connector-curvature="0" />
  <path
     d="m 165.75712,429.65029 c 31.08622,0.8671 46.82298,-11.0377 64.38102,-10.60865 18.67381,0.45632 22.65562,10.51337 64.38101,10.60865 44.05465,0.1108 48.78701,-38.05131 54.77191,-81.6774 5.62048,-40.96969 42.54962,-81.92658 29.78822,-143.17568 -9.18196,-44.06947 -30.06604,-65.65667 -61.49827,-72.06829 -26.87493,-5.482 -55.51321,-10e-6 -80.71649,-10e-6 -23.80316,0 -54.97048,-7.24582 -80.7165,-0.96091 -21.08512,5.14713 -66.4504,14.69679 -73.029208,95.13014 -4.827961,59.02732 21.688588,85.77042 27.866398,119.15293 7.64622,41.31726 2.53791,82.14224 54.77191,83.59922 z"
     style="fill:#ffffff;fill-opacity:1;fill-rule:evenodd;stroke:none"
     id="path2384"
     inkscape:connector-curvature="0" />
  <path
     d="m 161.08986,215.09786 c -5.30814,27.08357 -22.36906,46.15123 -38.1032,42.58462 -15.73416,-3.56661 -24.180849,-28.41633 -18.86439,-55.49801 5.30814,-27.08357 22.36906,-46.15124 38.10322,-42.58463 15.73414,3.56661 24.18083,28.41633 18.86437,55.49802 z"
     style="fill:#b3b3b3;fill-opacity:1;stroke:none"
     id="path3261"
     inkscape:connector-curvature="0" />
  <path
     d="m 275.04606,92.995786 c 10.72319,-3.485039 31.36532,3.485029 23.32294,26.539884 12.19657,-2.10725 27.36763,-2.92873 29.75684,-15.28054 6.55044,-28.152951 -53.3089,-35.388371 -53.07978,-11.259344 z"
     style="fill:#ffffff;fill-opacity:1;fill-rule:evenodd;stroke:none"
     id="path3271"
     inkscape:connector-curvature="0" />
  <path
     d="m 283.66642,59.190765 c -23.14266,-0.398917 -48.39432,12.436197 -55.70775,35.582808 -3.17705,13.415907 4.66329,27.745577 -1.72415,40.695797 -3.15867,5.89776 -6.6618,16.09561 1.24852,19.94658 8.29063,4.03202 17.11731,-2.84151 20.09266,-10.46868 9.85459,-15.68555 16.32166,-36.29334 34.69357,-44.16891 11.27843,-5.672381 27.83577,-7.909852 37.00969,2.7943 2.54868,4.87712 6.39251,13.67671 13.52562,10.67187 8.58681,-5.56292 8.54,-17.740685 6.95604,-26.694535 -5.24402,-18.120313 -25.0915,-26.230325 -42.41994,-27.73497 -4.53409,-0.537924 -9.10911,-0.756313 -13.67426,-0.62426 z"
     style="fill:#000000;fill-opacity:1;fill-rule:evenodd;stroke:none"
     id="path3376"
     inkscape:connector-curvature="0" />
  <path
     d="m 227.59596,145.27131 c 0,0 10.57129,-17.74607 5.62968,-39.40771 -4.79156,-21.003919 20.08557,-37.732864 38.60346,-40.211943 30.32257,-4.059434 70.77304,7.23815 56.29674,40.211943 C 319.2792,81.736441 291.99393,82.12129 269.41639,96.212733 248.00798,109.57448 237.3604,157.61025 227.59596,145.27131 z"
     style="fill:#ffffff;fill-opacity:1;fill-rule:evenodd;stroke:none"
     id="path3269"
     inkscape:connector-curvature="0" />
  <path
     d="m 195.90088,87.030935 c -6.291,2.407288 -16.28179,6.170559 -14.88188,14.592605 2.70355,7.64045 12.39275,7.97329 17.79457,13.06131 13.75067,9.55395 20.26629,25.49998 25.53172,40.65081 1.65371,5.67686 9.3799,11.39439 14.23039,5.69766 5.36313,-6.97022 -1.18281,-15.49607 -1.54,-23.03715 -4.33153,-20.56858 -15.3659,-42.418788 -35.91898,-50.582099 -1.68491,-0.460093 -3.47928,-0.632089 -5.21582,-0.383136 z"
     style="fill:#000000;fill-opacity:1;fill-rule:evenodd;stroke:none"
     id="path3392"
     inkscape:connector-curvature="0" />
  <path
     d="m 188.83582,97.213813 c -3.04745,4.258047 5.23139,5.579207 7.50245,8.257247 13.3166,8.46925 23.48397,21.89795 27.0235,37.48576 2.2223,5.85982 3.15718,12.7596 7.11875,17.57446 5.18221,-1.40612 0.0592,-9.03575 0.63671,-13.00343 -2.41961,-18.86068 -7.56406,-39.72027 -24.08994,-51.231169 -3.45604,-2.947077 -7.82706,-5.544197 -11.94181,-1.938387 -2.08321,0.951852 -4.16644,1.903676 -6.24966,2.855519 z"
     style="fill:#ffffff;fill-opacity:1;fill-rule:evenodd;stroke:none"
     id="path3267"
     inkscape:connector-curvature="0" />
  <path
     d="m 176.29509,150.17859 c 3.04389,17.58593 30.57692,29.52323 62.84546,26.87368 32.26853,-2.64955 57.4626,-18.91622 57.59711,-36.76312 -11.94007,13.21158 -33.42245,23.02644 -58.55557,25.0901 -25.13312,2.06366 -47.95179,-4.11368 -61.887,-15.20066 z"
     style="fill:#b3b3b3;fill-opacity:1;stroke:none"
     id="path3285"
     inkscape:connector-curvature="0" />
  <path
     d="m 306.2334,78.289167 c -6.17416,-11.493705 -24.43482,-10.929707 -41.58533,1.552902 -17.15052,12.482579 -26.91399,32.315261 -22.42914,45.038491 3.22149,-13.30829 12.58254,-27.338099 25.94065,-37.060447 13.35807,-9.722367 27.54276,-12.829758 38.07382,-9.530946 z"
     style="fill:#b3b3b3;fill-opacity:1;stroke:none"
     id="path3404"
     inkscape:connector-curvature="0" />
  <path
     d="m 350.19281,256.77233 c 12.4746,36.30102 3.10324,74.4261 -20.92987,85.14667 -24.03313,10.72057 -53.62338,-10.02471 -66.08525,-46.3314 -12.4746,-36.30101 -3.10324,-74.42609 20.92989,-85.14667 24.03311,-10.72057 53.62336,10.02472 66.08523,46.3314 z"
     style="fill:#b3b3b3;fill-opacity:1;stroke:none"
     id="path3509"
     inkscape:connector-curvature="0" />
  <path
     d="m 419.78857,0.2041576 c -27.80912,1.7423416 -49.49248,25.8495854 -55.55443,51.7742264 -4.86083,18.043139 1.0829,36.985354 10.67691,52.339296 8.74593,19.00534 4.98285,42.46202 -8.834,58.10884 -18.70765,23.72449 -48.31151,34.40587 -74.93331,46.30599 -14.75153,7.39025 -25.35662,22.12801 -26.91711,38.67186 -3.93272,30.736 18.39908,63.95634 49.95138,67.40745 26.29012,1.62606 48.52183,-15.0495 69.69504,-28.19089 31.5676,-20.09297 61.85764,-44.14629 79.81198,-77.46954 24.59295,-42.5433 35.85669,-92.79684 32.47801,-141.87428 C 493.98197,44.593208 483.28452,21.178619 462.48408,10.093078 449.69209,2.6183531 434.62202,-0.91853116 419.78857,0.2041576 z"
     style="fill:#000000;fill-opacity:1;fill-rule:evenodd;stroke:none"
     id="path3325"
     inkscape:connector-curvature="0" />
  <path
     d="m 299.2133,213.10348 c 29.35615,-11.91156 81.50378,-34.00905 88.2194,-79.65283 6.27785,-42.668335 -30.43907,-48.309446 -10.61119,-92.781627 22.69105,-50.893958 80.29353,-34.3628694 97.72978,-7.982535 17.1929,26.012156 12.4829,70.577492 6.21344,100.708672 -0.0652,0.31324 -0.13294,0.63485 -0.20335,0.96464 -4.92793,23.08262 -22.80777,86.19044 -74.19908,122.22965 -15.77506,11.06258 -48.57725,36.99467 -76.53618,45.36608 -49.68585,14.87683 -83.9542,-67.20821 -30.61282,-88.85205 z"
     style="fill:#ffffff;fill-opacity:1;fill-rule:evenodd;stroke:none"
     id="path3277"
     inkscape:connector-curvature="0" />
  <path
     d="m 412.17862,32.458644 c -0.33595,-6.56e-4 -0.66733,0.02093 -1.00844,0.03406 -23.46994,0.727271 -34.22234,33.176318 -19.83047,50.080084 3.32941,5.130355 8.42756,8.171101 14.00103,9.338622 -2.59593,1.047596 -5.04999,2.460863 -7.2847,4.330417 -5.2245,9.221468 3.3792,22.501018 14.08508,27.225748 21.17442,9.34472 46.25451,4.71351 57.32858,-11.9863 4.43352,-6.68579 2.26477,-16.886371 -10.5606,-19.823279 -7.94139,-2.629368 -16.41761,-3.12518 -24.73903,-3.087682 -3.04412,0.09113 -6.20923,0.09494 -9.3951,0.18656 4.60045,-2.658172 8.34904,-6.701444 10.2315,-11.917221 0.68877,-1.284354 1.26472,-2.618904 1.73294,-3.999458 1.33713,3.890729 3.59565,7.423921 6.88316,10.186245 11.56672,11.929274 33.7225,3.93443 37.09268,-11.699308 C 485.7456,56.201443 475.80728,35.604238 458.2176,36.346615 447.63991,36.667891 440.15126,44.196174 436.96395,53.460979 433.70951,42.07742 424.75116,32.48332 412.17862,32.458654 z"
     style="fill:#000000;fill-opacity:1;stroke:none"
     id="path3414"
     inkscape:connector-curvature="0" />
  <path
     d="m 430.20651,62.162562 c -0.48186,12.824906 -9.70962,22.889509 -20.61079,22.479929 -10.90118,-0.409581 -19.34769,-11.138244 -18.86583,-23.96315 0.48185,-12.824906 9.70962,-22.889509 20.61079,-22.479929 10.90117,0.40958 19.34769,11.138244 18.86583,23.96315 z"
     style="fill:#ffffff;fill-opacity:1;stroke:none"
     id="path3293"
     inkscape:connector-curvature="0" />
  <path
     d="m 474.29819,61.493604 c -0.40958,10.901163 -8.25317,19.45607 -17.51916,19.107927 -9.26599,-0.348143 -16.44553,-9.4675 -16.03595,-20.368663 0.40958,-10.901163 8.25318,-19.45607 17.51917,-19.107927 9.26599,0.348142 16.44552,9.4675 16.03594,20.368663 z"
     style="fill:#ffffff;fill-opacity:1;stroke:none"
     id="path3295"
     inkscape:connector-curvature="0" />
  <path
     d="m 418.4649,65.209128 c -0.0757,2.075569 -1.25395,3.952758 -3.09004,4.923612 -1.83609,0.970854 -4.05079,0.887643 -5.80885,-0.218251 -1.75806,-1.105894 -2.792,-3.0662 -2.71187,-5.141603 0.0757,-2.075569 1.25395,-3.952758 3.09004,-4.923612 1.83609,-0.970854 4.05079,-0.887643 5.80885,0.218251 1.75807,1.105894 2.792,3.0662 2.71187,5.141603 z"
     style="fill:#000000;fill-opacity:1;stroke:none"
     id="path3297"
     inkscape:connector-curvature="0" />
  <path
     d="m 459.943,65.628232 c -0.0703,1.928805 -1.16529,3.673256 -2.87155,4.57546 -1.70625,0.902204 -3.76435,0.824877 -5.3981,-0.202818 -1.63375,-1.027695 -2.59458,-2.849387 -2.52011,-4.778036 0.0703,-1.928805 1.16528,-3.673256 2.87154,-4.57546 1.70626,-0.902204 3.76436,-0.824877 5.39811,0.202818 1.63375,1.027695 2.59457,2.849387 2.52011,4.778036 z"
     style="fill:#000000;fill-opacity:1;stroke:none"
     id="path3299"
     inkscape:connector-curvature="0" />
  <g
     transform="matrix(0.97984767,0.04136658,-0.03835837,1.0566908,-43.697597,-124.95748)"
     id="g3505">
    <path
       d="m 526.77509,195.36718 c 1.42662,10.41674 -11.87645,19.10577 -29.69433,19.39514 -17.81791,0.28938 -33.43663,-7.92993 -34.86324,-18.34669 -1.42662,-10.41674 63.13097,-11.46519 64.55757,-1.04845 z"
       style="fill:#ffffff;fill-opacity:1;stroke:none"
       id="path3308"
       inkscape:connector-curvature="0" />
    <path
       d="m 462.79599,198.36114 c 1.41641,4.02408 15.96977,7.39143 33.22317,7.60219 17.25339,0.21078 30.89226,-2.81214 31.17529,-6.81546 -6.52891,2.66794 -18.11044,4.33509 -31.54866,4.17091 -13.43823,-0.16417 -25.54367,-2.1207 -32.8498,-4.95764 z"
       style="fill:#555753;fill-opacity:1;stroke:none"
       id="path3311"
       inkscape:connector-curvature="0" />
  </g>
  <path
     d="m 457.50414,197.17063 c -26.15518,42.62538 -72.5422,73.31832 -116.10896,75.59002 -23.14608,1.2069 -62.40852,-8.3148 -63.90745,-37.06155 -0.0962,-1.8444 0.15765,-3.64369 0.64474,-5.33216 -19.01961,31.47944 11.21104,83.72296 51.68828,71.60335 27.95893,-8.37141 60.77174,-34.30496 76.54682,-45.36753 23.28668,-16.33027 39.69839,-38.22847 51.13657,-59.43213 z"
     style="fill:#cccccc;fill-opacity:1;fill-rule:evenodd;stroke:#cccccc"
     id="path3443"
     inkscape:connector-curvature="0" />
  <path
     inkscape:connector-curvature="0"
     id="path3360"
     style="fill:#000000;fill-opacity:1;fill-rule:evenodd;stroke:none"
     d="m 91.605792,301.33759 c -29.017506,5.08772 -58.027965,18.3254 -72.28739,45.27625 -19.10204546,33.94132 -3.74658,80.67753 29.536937,99.28417 26.743749,15.9828 58.213961,21.57694 88.445991,27.8288 23.28166,3.50308 49.37715,3.87954 69.67303,-9.55778 23.15157,-17.07215 29.89682,-54.05348 11.7895,-77.09269 -14.91498,-16.32467 -39.01183,-18.51331 -59.91673,-20.27113 -15.45371,-1.08283 -32.3364,0.24007 -45.91759,-7.85727 -2.79795,-4.32796 -0.58196,-10.27201 -2.62783,-15.03693 L 91.605792,301.33759 z" />
  <path
     inkscape:connector-curvature="0"
     id="path3313"
     style="fill:#ffffff;fill-opacity:1;fill-rule:evenodd;stroke:none"
     d="m 85.451682,308.97328 c 6.775898,21.39261 14.132939,24.32981 15.424358,51.16472 15.22905,21.65576 65.8106,6.84232 99.48007,23.92742 26.95568,13.67827 18.88656,57.69965 -1.28398,70.91877 -26.07898,17.09134 -71.30295,7.27258 -100.893104,-1.19003 -0.307604,-0.088 -0.62339,-0.17915 -0.947113,-0.27355 -22.659009,-6.60771 -68.30396,-15.89666 -77.918442,-64.9517 -3.705786,-18.90768 1.665343,-64.57878 66.138211,-79.59563 z" />
  <path
     inkscape:connector-curvature="0"
     id="path3320"
     style="fill:#999999;fill-opacity:1;fill-rule:evenodd;stroke:none"
     d="m 78.413352,315.40365 16.226737,32.25197 -15.693278,-12.07464 12.938077,16.96488 -14.437523,-0.56987 17.421349,4.32706 -15.236026,5.22022 20.223827,2.3498 -12.354335,5.11429 18.24578,-0.48239 -13.27933,6.12007 22.00297,-3.46622 -9.36973,8.9012 17.14244,-6.22221 -3.62991,7.79786 11.29671,-8.00056 1.15898,6.71967 10.73695,-6.67733 c -17.96192,-1.14758 -33.56366,-3.08871 -40.91951,-13.54876 -0.70897,-14.73197 -3.256284,-22.25962 -6.521681,-29.59434 l -15.952497,-15.1307 z" />
  <path
     inkscape:connector-curvature="0"
     id="path3448"
     style="fill:#cccccc;fill-opacity:1;fill-rule:evenodd;stroke:none"
     d="m 43.88681,327.70576 c -25.207679,19.91667 -27.219852,47.29236 -24.55935,60.86678 9.614483,49.05505 55.244119,58.33017 77.903118,64.93787 0.323722,0.0944 0.651173,0.18406 0.958777,0.27202 29.590155,8.46261 74.790955,18.2903 100.869945,1.19896 19.87044,-13.02244 28.01655,-55.92388 2.48364,-70.27478 5.99685,12.67731 8.74341,30.17477 -12.08818,45.54961 -40.3406,23.22175 -72.86208,33.85919 -123.419062,1.26072 C 27.296763,406.53859 21.366135,355.24362 43.88681,327.70576 z" />
</svg>
